<svg xmlns="http://www.w3.org/2000/svg" viewBox="0 0 101.41 25.5"><defs><style>.cls-1{fill:#65893b;}.cls-2{fill:#70b243;}.cls-3{fill:#fff;}</style></defs><title>Asset 1</title><g id="Layer_2" data-name="Layer 2"><g id="Layer_2-2" data-name="Layer 2"><path class="cls-1" d="M60.25,7.23c.2.16.39.34.58.52l3.46-2.49c-.4-.54-1.91-.19-3.46.48-.08.26-.17.52-.25.75S60.36,7,60.25,7.23Z"/><path class="cls-2" d="M60.83,7.75A10.42,10.42,0,0,1,62,9.12c1.46-1.44,2.73-3.2,2.26-3.86h0Z"/><path class="cls-1" d="M60.91,0c-1-.39-3.22,2.85-4,5a2.5,2.5,0,0,0-.09.25,10.54,10.54,0,0,1,1.82.79Z"/><path class="cls-2" d="M59.27,6.52a16.21,16.21,0,0,1,1.56-.78c.68-2.22,1-5.36.08-5.71h0L58.59,6.11A6.82,6.82,0,0,1,59.27,6.52Z"/><path class="cls-2" d="M60.25,7.23c.11-.22.22-.46.33-.74s.17-.49.25-.75a16.21,16.21,0,0,0-1.56.78C59.6,6.74,59.93,7,60.25,7.23Z"/><path class="cls-3" d="M60.2,8.2c-.13-.11-.25-.23-.39-.34A9.5,9.5,0,0,0,58.53,7l-.22-.13a9.69,9.69,0,0,0-1.74-.77,9.87,9.87,0,0,0-3.13-.51,10,10,0,1,0,8,4.09A10.3,10.3,0,0,0,60.2,8.2ZM53.44,24.05A8.53,8.53,0,1,1,57.07,7.81l.25.12.38.21a9.23,9.23,0,0,1,1.3.92,8.25,8.25,0,0,1,1.35,1.48,8.43,8.43,0,0,1,1.62,5A8.54,8.54,0,0,1,53.44,24.05Z"/><path class="cls-3" d="M51.9,8.76A6.68,6.68,0,0,0,47,13.14l1.1.37a5.49,5.49,0,0,1,4-3.6Z"/><path class="cls-3" d="M53.44,12.24l-1.16,2.12-2.12,1.16,2.12,1.16,1.16,2.12,1.16-2.12,2.12-1.16L54.6,14.36Zm.3,3.58-.3.55-.3-.55-.55-.3.55-.3.3-.55.3.55.55.3Z"/><polygon class="cls-3" points="2.4 7.94 0 7.94 0 23.21 6.35 23.21 6.35 21.03 2.4 21.03 2.4 7.94"/><path class="cls-3" d="M10.85,7.76c-2.36,0-3.65,1.4-3.65,3.84v8c0,2.44,1.29,3.84,3.65,3.84s3.64-1.4,3.64-3.84v-8C14.49,9.16,13.2,7.76,10.85,7.76ZM12.09,19.7c0,1.09-.48,1.5-1.24,1.5S9.6,20.79,9.6,19.7V11.45c0-1.09.48-1.51,1.25-1.51s1.24.42,1.24,1.51Z"/><polygon class="cls-3" points="21.17 14.48 18.44 14.48 18.44 7.94 16.04 7.94 16.04 23.21 18.44 23.21 18.44 16.66 21.17 16.66 21.17 23.21 23.61 23.21 23.61 7.94 21.17 7.94 21.17 14.48"/><path class="cls-3" d="M27.17,7.94,24.73,23.21h2.2l.41-2.77h2.95l.42,2.77h2.42L30.68,7.94Zm.48,10.43,1.16-7.73L30,18.37Z"/><path class="cls-3" d="M36.34,11.45c0-1.09.43-1.51,1.2-1.51s1.2.42,1.2,1.51v.63H41V11.6c0-2.44-1.2-3.84-3.54-3.84s-3.53,1.4-3.53,3.84c0,4.37,4.69,5,4.69,8.1,0,1.09-.48,1.48-1.25,1.48s-1.24-.39-1.24-1.48V18.61H33.87v.94c0,2.44,1.22,3.84,3.58,3.84S41,22,41,19.55C41,15.18,36.34,14.59,36.34,11.45Z"/><polygon class="cls-3" points="66.47 23.21 68.87 23.21 68.87 16.91 71.97 16.91 71.97 14.72 68.87 14.72 68.87 10.12 72.82 10.12 72.82 7.94 66.47 7.94 66.47 23.21"/><path class="cls-3" d="M75.5,7.94,73.06,23.21h2.2l.42-2.77h2.94L79,23.21h2.42L79,7.94ZM76,18.37l1.16-7.73,1.15,7.73Z"/><path class="cls-3" d="M89.77,19c0-1.59-.39-2.75-1.59-3.25,1.07-.5,1.57-1.53,1.57-3.1v-1.2c0-2.36-1.07-3.51-3.55-3.51H82.57V23.21H85V17h.83c1.09,0,1.57.53,1.57,1.94v2.4a4.69,4.69,0,0,0,.22,1.88H90a4.48,4.48,0,0,1-.27-1.85Zm-2.42-5.8c0,1.22-.54,1.61-1.44,1.61H85V10.12h1.16c.85,0,1.22.48,1.22,1.57Z"/><polygon class="cls-3" points="98.07 7.94 96.43 18.78 94.66 7.94 91.32 7.94 91.32 23.21 93.42 23.21 93.42 12.41 95.21 23.21 97.48 23.21 99.14 12.26 99.14 23.21 101.41 23.21 101.41 7.94 98.07 7.94"/></g></g></svg>