<svg xmlns="http://www.w3.org/2000/svg" viewBox="0 0 101.41 25.5"><defs><style>.cls-1{fill:#4c6db4;}.cls-2{fill:#65893b;}.cls-3{fill:#70b243;}</style></defs><title>Asset 2</title><g id="Layer_2" data-name="Layer 2"><g id="Layer_1-2" data-name="Layer 1"><path class="cls-1" d="M0,7.94H2.4V21h4v2.18H0Z"/><path class="cls-1" d="M7.2,11.6c0-2.44,1.29-3.84,3.65-3.84s3.64,1.4,3.64,3.84v8c0,2.44-1.29,3.84-3.64,3.84S7.2,22,7.2,19.55Zm2.4,8.1c0,1.09.48,1.5,1.25,1.5s1.24-.41,1.24-1.5V11.45c0-1.09-.48-1.51-1.24-1.51s-1.25.42-1.25,1.51Z"/><path class="cls-1" d="M18.44,23.21H16V7.94h2.4v6.54h2.73V7.94h2.44V23.21H21.17V16.67H18.44Z"/><path class="cls-1" d="M33.13,23.21H30.71l-.42-2.77H27.34l-.41,2.77h-2.2L27.17,7.94h3.51Zm-5.48-4.84H30l-1.15-7.73Z"/><path class="cls-1" d="M37.47,7.76c2.34,0,3.54,1.4,3.54,3.84v.48H38.74v-.63c0-1.09-.44-1.51-1.2-1.51s-1.2.42-1.2,1.51c0,3.14,4.69,3.73,4.69,8.1,0,2.44-1.22,3.84-3.58,3.84s-3.58-1.4-3.58-3.84v-.94h2.27V19.7c0,1.09.48,1.48,1.24,1.48s1.25-.39,1.25-1.48c0-3.14-4.69-3.73-4.69-8.1C33.94,9.16,35.14,7.76,37.47,7.76Z"/><path class="cls-1" d="M68.87,14.72H72v2.19H68.87v6.3h-2.4V7.94h6.35v2.18H68.87Z"/><path class="cls-1" d="M81.46,23.21H79l-.42-2.77H75.68l-.42,2.77h-2.2L75.5,7.94H79ZM76,18.37h2.31l-1.15-7.73Z"/><path class="cls-1" d="M87.59,23.21a4.69,4.69,0,0,1-.22-1.88v-2.4c0-1.41-.48-1.94-1.57-1.94H85v6.22h-2.4V7.94H86.2c2.48,0,3.55,1.15,3.55,3.51v1.2c0,1.57-.5,2.6-1.57,3.1,1.2.5,1.59,1.66,1.59,3.25v2.36A4.48,4.48,0,0,0,90,23.21ZM85,10.12v4.69h.94c.9,0,1.44-.39,1.44-1.61V11.69c0-1.09-.37-1.57-1.22-1.57Z"/><path class="cls-1" d="M96.43,18.78,98.07,7.94h3.34V23.21H99.14v-11l-1.66,11H95.21l-1.79-10.8v10.8h-2.1V7.94h3.34Z"/></g><g id="Layer_2-2" data-name="Layer 2"><path class="cls-2" d="M60.25,7.23c.2.16.39.34.58.52l3.46-2.49c-.4-.54-1.91-.19-3.46.48-.08.26-.17.52-.25.75S60.36,7,60.25,7.23Z"/><path class="cls-3" d="M60.83,7.75A10.42,10.42,0,0,1,62,9.12c1.46-1.44,2.73-3.2,2.26-3.86h0Z"/><path class="cls-2" d="M60.91,0c-1-.39-3.22,2.85-4,5a2.5,2.5,0,0,0-.09.25,10.54,10.54,0,0,1,1.82.79Z"/><path class="cls-3" d="M59.27,6.52a16.21,16.21,0,0,1,1.56-.78c.68-2.22,1-5.36.08-5.71h0L58.59,6.11A6.82,6.82,0,0,1,59.27,6.52Z"/><path class="cls-3" d="M60.25,7.23c.11-.22.22-.46.33-.74s.17-.49.25-.75a16.21,16.21,0,0,0-1.56.78C59.6,6.74,59.93,7,60.25,7.23Z"/><path class="cls-1" d="M61.48,9.64A10.3,10.3,0,0,0,60.2,8.2c-.13-.11-.25-.23-.39-.34A9.5,9.5,0,0,0,58.53,7l-.22-.13a9.69,9.69,0,0,0-1.74-.77,9.87,9.87,0,0,0-3.13-.51,10,10,0,1,0,8,4.09Zm-8,14.41A8.53,8.53,0,1,1,57.07,7.81l.25.12.38.21a9.23,9.23,0,0,1,1.3.92,8.25,8.25,0,0,1,1.35,1.48,8.43,8.43,0,0,1,1.62,5A8.54,8.54,0,0,1,53.44,24.05Z"/><path class="cls-1" d="M51.9,8.76A6.68,6.68,0,0,0,47,13.14l1.1.37a5.49,5.49,0,0,1,4-3.6Z"/><path class="cls-1" d="M54.6,14.36l-1.16-2.12-1.16,2.12-2.12,1.16,2.12,1.16,1.16,2.12,1.16-2.12,2.12-1.16Zm-.86,1.46-.3.55-.3-.55-.55-.3.55-.3.3-.55.3.55.55.3Z"/></g></g></svg>